<?xml version="1.0" encoding="utf-8"?>
<!-- Generator: Adobe Illustrator 16.0.0, SVG Export Plug-In . SVG Version: 6.00 Build 0)  -->
<!DOCTYPE svg PUBLIC "-//W3C//DTD SVG 1.1//EN" "http://www.w3.org/Graphics/SVG/1.1/DTD/svg11.dtd">
<svg version="1.1" id="Capa_1" xmlns="http://www.w3.org/2000/svg" xmlns:xlink="http://www.w3.org/1999/xlink" x="0px" y="0px"
	 width="93.123px" height="121.19px" viewBox="0 0 93.123 121.19" enable-background="new 0 0 93.123 121.19" xml:space="preserve">
<g>
	<g fill="#fff">
		<path d="M0,116.281c0,2.7,2.209,4.91,4.91,4.91h83.303c2.701,0,4.91-2.209,4.91-4.91c0-27.168-12.275-50.489-29.541-59.818
			c8.347-5.483,13.83-14.975,13.83-25.695C77.411,13.829,63.582,0,46.643,0c-16.939,0-30.85,13.748-30.85,30.768
			c0,10.72,5.482,20.13,13.829,25.695C12.274,65.792,0,89.113,0,116.281z M46.561,9.82c11.538,0,20.948,9.41,20.948,20.948
			s-9.41,20.948-20.948,20.948s-20.949-9.41-20.949-20.948S35.023,9.82,46.561,9.82z M46.561,61.782
			c19.148,0,34.859,21.849,36.578,49.589H9.983C11.701,83.63,27.413,61.782,46.561,61.782z"/>
	</g>
</g>
</svg>
