<?xml version="1.0" encoding="utf-8"?>
<!-- Generator: Adobe Illustrator 16.0.0, SVG Export Plug-In . SVG Version: 6.00 Build 0)  -->
<!DOCTYPE svg PUBLIC "-//W3C//DTD SVG 1.1//EN" "http://www.w3.org/Graphics/SVG/1.1/DTD/svg11.dtd">
<svg version="1.1" id="Layer_1" xmlns="http://www.w3.org/2000/svg" xmlns:xlink="http://www.w3.org/1999/xlink" x="0px" y="0px"
	 width="202.608px" height="75.841px" viewBox="0 0 202.608 75.841" enable-background="new 0 0 202.608 75.841"
	 xml:space="preserve">
<g>
	<path fill="#FFFFFF" d="M6.313,13.799c3.809-3.736,6.168-3.848,6.168-3.848s0.743-0.112,2.545,0.521
		c1.802,0.632,1.876,1.599,1.876,1.599v27.35c0.231,7.654-1.672,10.598-3.958,12.643c-1.299,1.056-2.342,1.19-2.471,1.19
		c-0.316,0-0.557-0.037-0.613-0.464c-0.056-0.429,0.334-1.544,0.334-1.544c1.152-2.919,1.059-7.977,1.059-7.977l0.111-29.47
		c0,0,0.093-0.539-0.371-0.372C6.5,17.294,5.942,22.743,5.793,25.382c-0.075,3.961,1.644,6.005,1.644,6.005s0.446,0.391,0.39,0.948
		c0,0.753-0.697,0.697-0.697,0.697c-1.69-0.157-4.384-2.073-5.351-4.378C0.979,26.951,1,25.113,1,25.113
		C1.056,22.798,2.505,17.537,6.313,13.799z"/>
	<path fill="#FFFFFF" d="M118.857,41.657c1.208-1.748,4.642-7.055,5.635-12.241c0,0-1.696-1.266-1.575-3.074
		c0.12-1.809,1.029-3.978,3.695-3.978c2.667,0,2.788,2.351,2.363,3.978c0,0,2.242-0.301,4.182-0.784s4.545-0.783,4.726,2.23
		c0.121,1.085-0.363,1.929-0.363,1.929s-1.515,6.691-1.272,9.403c0.243,2.713,0.97,6.812,3.091,6.329
		c2.12-0.482,4.06-3.496,4.06-3.496l1.693-0.195c0,0-3.571,7.006-7.358,6.855s-6.908-4.521-6.666-10.187
		c0.242-5.666,1.121-8.499,1.121-8.499s0.304-0.573-0.212-0.603c-0.515-0.03-3.787,0.06-3.787,0.06s-1.848,7.414-9.665,16.636"/>
	<path fill="#FFFFFF" d="M102.702,41.314c0.012,0.107,0.024,0.215,0.037,0.322c-0.604,1.64-1.605,3.564-3.012,3.771
		c-1.634,0.129-2.185-1.769-2.495-4.98c-0.244-5.526,0.182-14.879,0.182-14.879c0.061-0.729-0.73-1.64-3.042-2.004
		c-2.312-0.364-2.191,1.093-2.191,1.093l-0.061,1.215c-1.765-3.34-5.112-3.219-5.112-3.219c-5.498,0-7.892,6.292-8.458,11.661
		c-0.147,1.402-0.169,2.651-0.135,3.693l-0.033,0.054c0,0-1.77,6.682-4.754,6.535c-2.138,0.037-2.248-5.354-2.248-7.643L71.858,22.2
		l6.854-0.147c0,0,0.811-0.333,0.995-1.698c0.184-1.366-0.074-1.588-0.885-1.662c-0.811-0.074-6.892-0.369-6.892-0.369l0.295-6.683
		c0,0,0-0.554-2.432-1.182s-3.28-0.442-3.464,0.886c-0.037,0.924-0.221,6.646-0.221,6.646l-5.527-0.074c0,0-1.069,0.849-1.069,2.88
		c0.074,1.07,0.516,1.107,0.516,1.107l5.785,0.073L65.741,34.68c0,0-0.294,3.803-4.201,7.199c0,0,0.329-0.911,0.147-2.362
		c-0.406-3.027-2.985-5.096-8.476-9.009c0,0,2.837-3.101,2.764-5.649c0.074-2.326-2.69-2.178-2.69-2.178s-1.764,0.119-3.206,1.181
		c-2.123,1.564-3.612,5.169-0.885,8.123c0,0-6.154,11.889-7.886,11.482c-0.7-0.11-1.142-1.329-1.032-4.431
		s0.369-11.888,0.369-11.888s0.332-1.773-2.138-2.991c-2.469-1.219-6.559-3.729-11.976,12.258l0.074-11.667
		c0,0,0.074-0.702-2.027-1.255c-2.1-0.554-2.727-0.259-2.764,0.406l-0.147,20.122c0,0-0.147,4.209,2.063,4.283
		c2.211,0.073,1.475,0.11,2.027,0.11c0.553,0,1.105-0.295,1.105-0.554s1.843-13.771,8.034-20.343c0,0,0.405-0.222,0.405,0.222
		c0,0.442-0.442,8.898-0.369,13.844c0.074,4.948,1.659,6.646,3.317,6.868c1.203,0.16,4.312-0.628,7.444-5.723
		c1.29-2.289,3.059-4.947,5.38-8.861c0,0,1.253,1.107,2.874,2.583c1.622,1.478,2.801,3.25,2.654,4.911
		c-0.147,1.661-0.59,3.286-2.617,3.359c-1.584,0-2.985-1.365-2.985-1.365s-0.921-0.776-1.437-0.776s-1.143,0.443-1.88,1.515
		c-0.737,1.07-0.626,1.439-0.626,1.772c0,0.332,0.774,2.657,7.223,2.694s9.913-5.354,11.682-9.562c0,0,0.258,9.489,6.375,9.489
		c3.329-0.051,5.5-3.96,6.375-6.203c0.073-0.188,0.127-0.349,0.172-0.498c0.18,0.726,0.525,1.958,0.974,2.77
		c0,0,1.551,4.009,5.416,4.069c5.689,0.061,7.759-5.314,7.759-5.314c0.061,0.729,0.882,4.858,5.021,5.314
		c2.945,0.324,4.746-2.462,5.539-4.095L102.702,41.314z M92.135,34.505c-0.183,8.245-3.24,11.023-4.975,10.795
		c-1.734-0.228-3.787-2.231-3.286-9.976c0.501-7.743,3.286-8.518,4.472-8.563C88.347,26.762,92.318,26.261,92.135,34.505z"/>
	<path fill="#FFFFFF" d="M107.003,46.604 M107.432,34.213c0.185,8.354,3.289,11.169,5.05,10.938
		c1.761-0.23,3.845-2.262,3.336-10.106c-0.685-7.497-3.715-8.551-4.919-8.598C110.899,26.446,107.247,25.86,107.432,34.213z
		 M106.833,50.499 M102.495,66.912c0-9.022,0.004-9.09,0-15.151c-0.003-3.205,0-6.029,0-6.029v-3.826c0,0-0.182-15.89-0.182-16.794
		c0-0.904,0.303-1.146,1.271-1.507c0.97-0.362,1.878-0.482,1.878-0.482c2.183-0.421,2.001,1.085,2.001,1.085l0.061,1.145
		c1.878-3.436,5.998-3.134,5.998-3.134s9.189,2.036,7.3,18.747l-0.891,3.216c-2.694,4.768-5.898,4.116-5.898,4.116
		s-4.15,0.255-6.86-4.234c0,0-0.305,14.517-0.254,16.509C107.026,64.792,102.495,66.912,102.495,66.912z"/>
	<path fill="#FFFFFF" d="M200.818,29.083c0,0,0.182,15.89,0.182,16.794s-0.303,1.146-1.271,1.507
		c-0.97,0.361-1.878,0.482-1.878,0.482c-2.183,0.422-2.001-1.085-2.001-1.085l-0.061-1.146c-1.878,3.437-5.998,3.135-5.998,3.135
		s-9.189-2.036-7.3-18.747l0.891-3.216c2.694-4.768,5.898-4.116,5.898-4.116s4.15-0.254,6.86,4.235l0.169-2.541
		c0,0-1.693-1.524-5.928-5.505c-4.235-3.98-5.251-6.945-5.082-8.554c0,0-0.4-5.477,6.703-5.957c8.21,0.664,8.963,8.796,8.967,14.858
		c0.003,3.206-0.06,6.088-0.06,6.088L200.818,29.083z M195.88,36.775c-0.185-8.353-3.289-11.167-5.05-10.937
		c-1.761,0.231-3.845,2.261-3.336,10.106c0.685,7.496,3.715,8.551,4.919,8.598C192.414,44.542,196.066,45.129,195.88,36.775z
		 M196.394,15.323c-0.107-4.22-0.773-9.042-4.743-8.639c-3.303,0.169-2.625,3.642-2.625,3.642s0.593,4.235,7.453,10.163
		C196.479,20.489,196.445,17.315,196.394,15.323z"/>
	<path fill="#FFFFFF" d="M151.431,22.689c-5.72,0-7.892,6.292-8.458,11.661c-0.147,1.402-0.169,2.65-0.136,3.692l-0.033,0.054
		c0,0-0.536,7.558-6.014,7.558c-0.411,1.307,4.386,1.601,6.013-2.268c0.134-0.319,0.797-0.38,0.955,0.07
		c0.136,0.386,0.294,0.74,0.523,1.157c0,0,1.552,4.068,5.416,4.068c8.322,0,9.17-12.145,8.888-17.45
		C158.427,28.257,157.151,22.689,151.431,22.689z M156.558,34.562c-0.183,8.244-3.239,11.022-4.974,10.795s-3.788-2.231-3.286-9.975
		s3.286-8.518,4.472-8.563C152.77,26.819,156.742,26.317,156.558,34.562z"/>
	<path fill="#FFFFFF" d="M158.356,30.22c0.971-1.329,1.827-2.217,2.322-2.101c0.7,0.111,1.143,1.329,1.032,4.431
		c-0.11,3.101-0.368,11.889-0.368,11.889s-0.332,1.771,2.137,2.99c2.47,1.219,6.56,3.729,11.977-12.258c0,0-0.037,2.099-0.037,5.91
		c0,12.958,10.107,3.894,10.107,3.894s-0.074,0.702,2.026,1.255c2.101,0.555-0.999-3.976-0.962-4.64c0,0-6.358,7.707-6.358-1.948
		c0-2.88,0.089-12.077,0.089-12.077s0.146-4.208-2.064-4.282s-1.474-0.111-2.026-0.111s-1.105,0.295-1.105,0.554
		s-1.843,13.772-8.034,20.344c0,0-0.405,0.222-0.405-0.222s0.442-8.898,0.369-13.846c-0.074-4.948-1.658-6.646-3.317-6.868
		c-1.087-0.145-3.73,0.485-6.541,4.368"/>
	<g>
		<g>
			<path fill="#FFFFFF" d="M151.08,68.256V68.22c0.799-0.207,1.236-0.521,1.236-2.12c0-1.839-0.96-2.438-3.237-2.438h-8.186v9.308
				h9.066c1.283,0,2.197-0.279,2.557-1.357c0.081-0.281,0.116-0.684,0.116-1.118c0-0.521-0.035-0.919-0.116-1.241
				C152.316,68.697,151.878,68.375,151.08,68.256z M143.731,65.898h5.032c0.56,0,0.839,0.201,0.839,0.72
				c0,0.521-0.279,0.721-0.839,0.721h-5.032V65.898z M148.843,70.73h-5.112v-1.478h5.112c0.598,0,1.038,0.162,1.038,0.802
				C149.881,70.573,149.441,70.73,148.843,70.73z"/>
			<path fill="#FFFFFF" d="M174.677,69.375c0,1.157-0.354,1.275-1.674,1.275h-3.036c-1.358,0-1.438-0.476-1.438-1.835v-0.997
				c0-1.156,0.079-1.881,1.594-1.881h3.119c0.835,0,1.318,0.202,1.318,0.882v0.238h2.872c0-2.635-0.517-3.517-4.552-3.517h-3.353
				c-2.236,0-3.437,0.481-3.753,2.357c-0.043,0.279-0.043,0.645-0.043,1.038v2.758c0,0.401,0,0.717,0.043,1.036
				c0.316,1.843,1.517,2.316,3.753,2.316h4.592c2.875,0,3.437-1.236,3.437-2.796v-0.876H174.677z"/>
			<polygon fill="#FFFFFF" points="165.852,63.662 162.741,63.662 159.424,70.612 158.905,70.612 155.471,63.662 152.357,63.662 
				156.989,72.97 161.223,72.97 			"/>
		</g>
		<g>
			<polygon fill-rule="evenodd" clip-rule="evenodd" fill="#FFFFFF" points="181.068,73.29 190.892,63.465 181.068,63.465 			"/>
			<polygon fill-rule="evenodd" clip-rule="evenodd" fill="#FFFFFF" points="190.892,63.465 200.715,53.6 190.892,53.6 			"/>
		</g>
		<path fill-rule="evenodd" clip-rule="evenodd" fill="#FFFFFF" d="M185.98,54.718c2.118,0,3.836,1.72,3.836,3.834
			c0,2.075-1.718,3.796-3.836,3.796c-2.117,0-3.832-1.721-3.832-3.796C182.148,56.438,183.863,54.718,185.98,54.718z"/>
		<path fill-rule="evenodd" clip-rule="evenodd" fill="#FFFFFF" d="M195.805,64.544c2.115,0,3.833,1.714,3.833,3.831
			c0,2.119-1.718,3.831-3.833,3.831c-2.118,0-3.835-1.712-3.835-3.831C191.97,66.258,193.687,64.544,195.805,64.544z"/>
	</g>
</g>
</svg>
